<?xml version="1.0" encoding="utf-8"?>
<!-- Generator: Adobe Illustrator 27.4.0, SVG Export Plug-In . SVG Version: 6.00 Build 0)  -->
<svg version="1.1" id="Layer_1" xmlns="http://www.w3.org/2000/svg" xmlns:xlink="http://www.w3.org/1999/xlink" x="0px" y="0px"
	 viewBox="0 0 1087.7 175" style="enable-background:new 0 0 1087.7 175;" xml:space="preserve">
<style type="text/css">
	.st0{fill:#1E306F;}
	.st1{fill:#1E306E;}
	.st2{fill:#54609A;}
</style>
<g>
	<path class="st0" d="M54,95c-3.9,0-7.8-0.6-11.5-1.8C32.9,90.4,25.3,84.8,23,79c-2.7-6.9-1.8-13.8,2.5-19.3
		c5-6.3,14.1-10.2,21.7-9.1c8.6,1.2,15.4,7.4,19.7,12s9,11.2,8.3,18.3c-0.2,2-0.9,3.8-1.9,5.5c-1,1.7-2.4,3.1-4,4.2
		C64.7,93.6,59.4,95.2,54,95 M44.7,58.5c-2.5,0.1-4.9,0.7-7.1,1.7c-2.2,1.1-4.2,2.6-5.8,4.5c-2.6,3.3-3.1,7.1-1.4,11.4
		c1.2,3,6.5,7.2,14.3,9.5s15.3,1.8,19.9-1.4c0.7-0.4,1.3-1,1.8-1.7c0.4-0.7,0.7-1.5,0.8-2.3c0.3-3.1-2-7.6-6.2-12
		c-5.5-5.9-10.3-8.9-15-9.6C45.6,58.5,45.1,58.5,44.7,58.5"/>
	<path class="st0" d="M81.5,135.8c-1,0-2-0.4-2.7-1.1c-0.7-0.7-1.2-1.6-1.3-2.6c-0.1-1,0.2-2,0.9-2.8c0.6-0.8,1.5-1.3,2.5-1.5
		c28.7-4.5,41.1-10.5,43-14.3c2.8-5.7,0.3-16.6-6.8-29.7c-6.2-11.4-14.9-22.4-19.6-26.4c-1.1-1-2.3-1.7-3.7-2.1
		c-1.4-0.4-2.8-0.5-4.2-0.3c-1.1,0.2-2.2,0.7-3.1,1.4c-0.9,0.7-1.6,1.6-2.2,2.6C83.8,60,83,60.6,82,60.8c-1,0.2-2,0.1-2.9-0.4
		c-0.9-0.5-1.6-1.3-1.9-2.2c-0.3-1-0.3-2,0.1-2.9c1.1-2.1,2.6-3.9,4.5-5.3c1.9-1.4,4-2.4,6.3-2.8c2.6-0.4,5.2-0.3,7.7,0.5
		c2.5,0.7,4.8,2,6.7,3.7c10.7,9,37.8,46.6,28.5,65.7c-3.9,8-20.3,14.2-48.9,18.7C81.9,135.8,81.7,135.8,81.5,135.8"/>
	<path class="st1" d="M27.7,106.7c-0.5-0.1-1.1-0.2-1.5-0.5c-3.1-1.8-6-3.7-8.8-5.9c-0.8-0.7-1.3-1.6-1.4-2.7
		c-0.1-1,0.2-2.1,0.9-2.9c0.6-0.8,1.6-1.3,2.6-1.5c1-0.1,2.1,0.1,2.9,0.8c2.5,1.9,5,3.7,7.8,5.3c0.8,0.5,1.4,1.2,1.8,2
		c0.3,0.9,0.4,1.8,0.1,2.7c-0.3,0.9-0.9,1.6-1.6,2.1C29.6,106.6,28.6,106.8,27.7,106.7z"/>
	<path class="st1" d="M96.9,109c0.5,0,1.1-0.1,1.6-0.3c3.3-1.3,6.5-2.8,9.6-4.6c0.9-0.6,1.5-1.4,1.8-2.4c0.2-1,0.1-2.1-0.4-3
		c-0.5-0.9-1.4-1.6-2.4-1.8s-2.1-0.2-3,0.3c-2.7,1.6-5.5,2.9-8.4,4.1c-0.9,0.3-1.6,1-2,1.8c-0.5,0.8-0.6,1.7-0.5,2.6
		c0.2,0.9,0.6,1.7,1.3,2.3C95.1,108.7,96,109,96.9,109z"/>
	<path class="st1" d="M60.1,115.8c-1.6-0.1-3.3-0.1-4.9-0.3c-0.5,0-1-0.2-1.5-0.4c-0.5-0.2-0.9-0.6-1.2-1c-0.3-0.4-0.6-0.9-0.7-1.4
		c-0.2-0.5-0.2-1-0.2-1.6c0-0.5,0.2-1,0.4-1.5c0.2-0.5,0.6-0.9,1-1.2c0.4-0.3,0.9-0.6,1.4-0.7c0.5-0.2,1-0.2,1.6-0.2
		c3.2,0.3,6.3,0.4,9.5,0.3c1.1,0,2.1,0.4,2.9,1.1c0.8,0.7,1.2,1.7,1.2,2.8c0,1.1-0.4,2.1-1.1,2.9c-0.7,0.8-1.7,1.2-2.8,1.2
		C63.8,115.9,61.9,115.9,60.1,115.8z"/>
	<path class="st1" d="M212.1,92.2c-0.8,0-1.7-0.3-2.3-0.8c-2.6-1.8-5.2-3.5-8-5c-0.5-0.2-1-0.5-1.3-1c-0.4-0.4-0.7-0.9-0.8-1.4
		c-0.2-0.5-0.2-1.1-0.2-1.6c0-0.6,0.2-1.1,0.5-1.6c0.3-0.5,0.6-0.9,1.1-1.3c0.4-0.3,0.9-0.6,1.5-0.7c0.5-0.1,1.1-0.2,1.6-0.1
		c0.5,0.1,1.1,0.3,1.5,0.6c3.1,1.7,6,3.5,8.9,5.6c0.7,0.5,1.2,1.2,1.5,2c0.3,0.8,0.3,1.7,0,2.5c-0.3,0.8-0.8,1.5-1.5,2
		C213.8,92,212.9,92.3,212.1,92.2 M144.5,89.8c-0.9,0-1.8-0.3-2.5-0.9c-0.7-0.6-1.2-1.4-1.4-2.3c-0.2-0.9-0.1-1.8,0.3-2.6
		c0.4-0.8,1.1-1.5,1.9-1.8l0.4-0.2c2.9-1.3,5.8-2.6,8.9-3.9c0.5-0.2,1-0.4,1.6-0.4c0.5,0,1.1,0.1,1.6,0.3c0.5,0.2,1,0.5,1.4,0.9
		c0.4,0.4,0.7,0.8,0.9,1.3c0.2,0.5,0.3,1,0.3,1.6c0,0.5-0.1,1.1-0.4,1.6c-0.2,0.5-0.6,0.9-1,1.3c-0.4,0.4-0.9,0.6-1.4,0.8
		c-2.9,1.2-5.8,2.5-8.6,3.8l-0.4,0.2C145.6,89.6,145,89.8,144.5,89.8 M183.8,80.4c-0.2,0-0.3,0-0.5,0c-3-0.3-6.1-0.4-9.2-0.1
		c-1.1,0.1-2.1-0.2-2.9-0.9c-0.8-0.7-1.3-1.7-1.4-2.7c-0.1-1.1,0.2-2.1,0.9-2.9c0.7-0.8,1.7-1.3,2.7-1.4c3.6-0.3,7.2-0.3,10.8,0.1
		c1.1,0.1,2.1,0.5,2.8,1.3c0.7,0.8,1.1,1.8,1,2.9c-0.1,1.1-0.5,2.1-1.3,2.8C185.9,80.2,184.9,80.5,183.8,80.4"/>
	<path class="st0" d="M68.1,73.2c-0.5,0-1.1,0-1.6-0.2c-0.5-0.2-1-0.4-1.4-0.8c-0.4-0.3-0.7-0.8-1-1.2c-0.2-0.5-0.4-1-0.4-1.5
		c0-0.5,0-1.1,0.2-1.6c0.2-0.5,0.4-1,0.8-1.4s0.8-0.7,1.2-1c0.5-0.2,1-0.4,1.5-0.4c0.5-0.2,4.2-1.7,10.7-11.2
		c0.3-0.4,0.7-0.8,1.1-1.1c0.4-0.3,0.9-0.5,1.4-0.6c0.5-0.1,1-0.1,1.6,0c0.5,0.1,1,0.3,1.4,0.6c0.4,0.3,0.8,0.7,1.1,1.1
		c0.3,0.4,0.5,0.9,0.6,1.4c0.1,0.5,0.1,1,0,1.6c-0.1,0.5-0.3,1-0.6,1.4c-8.8,13-14.5,14.6-16.5,14.7H68.1z"/>
	<path class="st0" d="M94.9,87.9c-0.6,0-1.2-0.1-1.7-0.4c-0.5-0.2-1-0.6-1.4-1.1l-7.1-8.5c-0.7-0.8-1-1.9-0.9-2.9
		c0.1-1.1,0.6-2,1.4-2.7c0.8-0.7,1.9-1,2.9-0.9c1.1,0.1,2,0.6,2.7,1.4l7.1,8.5c0.5,0.6,0.8,1.3,0.9,2.1c0.1,0.8,0,1.5-0.3,2.2
		s-0.8,1.3-1.5,1.7C96.4,87.7,95.7,87.9,94.9,87.9z"/>
	<path class="st0" d="M134.9,68.8c-0.4,0-0.9,0-1.3,0c-13.9-0.6-39.4-13-40.4-13.5c-1-0.5-1.7-1.3-2-2.3c-0.3-1-0.3-2.1,0.2-3.1
		c0.5-1,1.3-1.7,2.3-2c1-0.3,2.1-0.3,3.1,0.2c0.2,0.1,25.1,12.2,37.3,12.7c8,0.3,15.5-3.6,23.5-7.8c15.9-8.4,33.9-17.9,59.2,7.2
		c0.8,0.7,1.2,1.8,1.2,2.8c0,1.1-0.4,2.1-1.2,2.8c-0.7,0.8-1.8,1.2-2.8,1.2c-1.1,0-2.1-0.4-2.8-1.2c-21.1-20.9-34.4-13.9-49.8-5.8
		C153,64.5,144.6,68.9,134.9,68.8"/>
	<path class="st2" d="M59.9,136.8c-16.3,0-31.6-4.5-43.7-13c-0.9-0.6-1.5-1.5-1.7-2.6c-0.2-1.1,0-2.1,0.7-3c0.6-0.9,1.5-1.5,2.6-1.7
		c1.1-0.2,2.1,0,3,0.7c12.2,8.6,28.2,12.6,45,11.4c1.1-0.1,2.1,0.3,2.9,1c0.8,0.7,1.3,1.7,1.4,2.7c0.1,1.1-0.3,2.1-1,2.9
		c-0.7,0.8-1.7,1.3-2.7,1.4C64.2,136.7,62,136.7,59.9,136.8"/>
	<path class="st2" d="M213.5,116.5c-0.9,0-1.7-0.3-2.4-0.8c-27.2-20.3-47.1-11.3-64.8-3.3l-0.4,0.2c-0.5,0.2-1,0.3-1.5,0.4
		c-0.5,0-1-0.1-1.5-0.3c-0.5-0.2-0.9-0.5-1.3-0.8c-0.4-0.4-0.7-0.8-0.9-1.3c-0.2-0.5-0.3-1-0.4-1.5c0-0.5,0.1-1,0.3-1.5
		c0.2-0.5,0.5-0.9,0.8-1.3c0.4-0.4,0.8-0.7,1.3-0.9l0.4-0.2c18.7-8.4,41.9-19,72.8,4.2c0.7,0.5,1.2,1.2,1.4,2c0.2,0.8,0.2,1.7,0,2.5
		c-0.3,0.8-0.8,1.5-1.5,2C215.2,116.3,214.4,116.5,213.5,116.5z"/>
</g>
<g>
	<path class="st1" d="M273.3,54.6c12.6,0,20.6,7.3,22.7,18.4h-9.3c-2.2-5.9-6-9.9-13.4-9.9c-9.8,0-15.8,8.5-15.8,20.2
		c0,11.6,5.9,20.2,15.8,20.2c7.4,0,11.3-4,13.4-10h9.3c-2.1,11.3-10.2,18.5-22.7,18.5c-14.3,0-25.3-11.6-25.3-28.8
		S259,54.6,273.3,54.6z"/>
	<path class="st1" d="M327.1,111.3V109c-1.4,1.4-5.4,3-10,3c-8.3,0-15.1-4.9-15.1-13.2c0-7.6,6.8-13,15.7-13c3.6,0,7.7,1.3,9.3,2.5
		v-3.3c0-4.1-2.5-7.3-7.7-7.3c-3.6,0-5.9,1.5-6.9,4.4h-8.7c1.2-6.9,7.5-12.1,15.8-12.1c10.2,0,16.2,5.6,16.2,14.8v26.4H327.1z
		 M327.1,97.2c-1-2.5-4.6-4.1-8.3-4.1c-4.1,0-8.4,1.7-8.4,5.7c0,4.1,4.3,5.8,8.4,5.8c3.6,0,7.3-1.5,8.3-4.1V97.2z"/>
	<path class="st1" d="M352.8,99.7c1,3.4,4,5.1,8,5.1c4.2,0,6.9-1.6,6.9-4.8c0-2.2-1.4-3.4-4.7-4.2l-8.4-2c-5.7-1.4-10-4.4-10-11.1
		c0-7.3,6.4-12.6,15.2-12.6c9.4,0,14.8,4.5,16.2,11.9h-8.9c-0.8-2.6-3.2-4.4-7.4-4.4c-3.2,0-6.4,1.5-6.4,4.6c0,1.8,1.3,3,4.2,3.7
		l8.5,2c6.9,1.6,10.3,5.5,10.3,11.4c0,8-6.6,12.9-15.7,12.9c-9.4,0-16-4.7-17.2-12.5H352.8z"/>
	<path class="st1" d="M394.4,126.7h-9.1V71h9.1v3.4c1.8-2.3,5.8-4.4,10.3-4.4c11.8,0,18.7,9.8,18.7,21.1c0,11.3-6.9,21.1-18.7,21.1
		c-4.4,0-8.4-2.1-10.3-4.4V126.7z M394.4,98.8c1.5,3.2,5,5.4,8.7,5.4c7,0,11.2-5.5,11.2-13c0-7.4-4.2-13-11.2-13
		c-3.7,0-7.2,2.2-8.7,5.4V98.8z"/>
	<path class="st1" d="M465.3,98.8c-1.4,8-7.3,13.4-17,13.4c-11.3,0-19.1-8.5-19.1-21c0-12.1,7.9-21.1,18.9-21.1
		c11.3,0,17.5,8.1,17.5,19.9v3.3h-27.5c0.3,7.1,4.4,11.3,10.2,11.3c4.4,0,7.6-1.9,8.6-5.8H465.3z M438.4,86.6h18.2
		c-0.1-4.9-2.9-8.9-8.4-8.9C443.2,77.7,439.5,80.8,438.4,86.6z"/>
	<path class="st1" d="M496.5,80.2c-1.3-0.9-3.4-1.4-5.4-1.4c-3.7,0-7.2,2.1-8.1,6.4v26.1H474V71h9.1v4.2c1.5-3,5.1-5.1,9-5.1
		c2,0,3.8,0.4,4.4,0.7V80.2z"/>
	<path class="st1" d="M530.7,95.9c1.8,5.7,6.5,8.4,12.6,8.4c6.5,0,10.8-3.1,10.8-8.3c0-3.9-2.3-6.2-8.1-7.5l-9.4-2.3
		c-7.7-1.8-13.9-6-13.9-15c0-9.4,7.7-16.5,19-16.5c12.1,0,19.2,6.2,21.1,15.4h-9.4c-1.5-4.2-5-7.4-11.6-7.4c-6,0-10.1,3.1-10.1,7.7
		c0,3.7,2.4,6.1,7.4,7.3l9.7,2.3c8.7,2,14.4,7.1,14.4,15.4c0,10.4-8.4,16.9-19.9,16.9c-11.8,0-20.2-6-22.2-16.3H530.7z"/>
	<path class="st1" d="M576.1,64.4c-3,0-5.6-2.5-5.6-5.5c0-3.1,2.6-5.5,5.6-5.5c3,0,5.6,2.5,5.6,5.5
		C581.7,61.9,579.1,64.4,576.1,64.4z M580.6,111.3h-9.1V71h9.1V111.3z"/>
	<path class="st1" d="M618,106.7c-1.8,2.2-5.7,4.2-10.3,4.2c-11.9,0-18.7-9.8-18.7-20.4s6.8-20.4,18.7-20.4c4.5,0,8.4,2,10.3,4.2V71
		h9.1v36.9c0,13.6-8.3,19.7-19,19.7c-10.3,0-16.9-5.4-17.9-14.2h8.8c0.9,4.4,4.1,6.7,9.1,6.7c6.7,0,9.9-4.1,9.9-11.6V106.7z
		 M618,82.9c-1.5-2.7-4.9-4.8-8.7-4.8c-7,0-11,5.3-11,12.4c0,7.2,4,12.4,11,12.4c3.8,0,7.2-2.1,8.7-4.8V82.9z"/>
	<path class="st1" d="M638.4,71h9.1v3.8c2.2-2.5,6.2-4.7,10.9-4.7c9.2,0,14.3,6.1,14.3,15v26.2h-9.1V86.6c0-5-2.5-8.3-7.6-8.3
		c-3.9,0-7.4,2.5-8.4,6.4v26.5h-9.1V71z"/>
	<path class="st1" d="M705.7,111.3V109c-1.4,1.4-5.4,3-10,3c-8.3,0-15.1-4.9-15.1-13.2c0-7.6,6.8-13,15.7-13c3.6,0,7.7,1.3,9.3,2.5
		v-3.3c0-4.1-2.5-7.3-7.7-7.3c-3.6,0-5.9,1.5-6.9,4.4h-8.7c1.2-6.9,7.5-12.1,15.8-12.1c10.2,0,16.2,5.6,16.2,14.8v26.4H705.7z
		 M705.7,97.2c-1-2.5-4.6-4.1-8.3-4.1c-4.1,0-8.4,1.7-8.4,5.7c0,4.1,4.3,5.8,8.4,5.8c3.6,0,7.3-1.5,8.3-4.1V97.2z"/>
	<path class="st1" d="M726.7,78.5h-6.4V71h6.4V60.2h9.1V71h9.1v7.5h-9.1v20.9c0,3.3,1.8,4.7,4.8,4.7c1.8,0,3.9-0.7,5.2-1.6v8.3
		c-1.5,0.9-4,1.5-6.8,1.5c-7.2,0-12.3-3.8-12.3-11.8V78.5z"/>
	<path class="st1" d="M788.5,111.3h-9.1v-3.8c-2.2,2.5-6.1,4.7-10.8,4.7c-9.2,0-14.2-6.1-14.2-15V71h9.1v24.7c0,5,2.4,8.3,7.5,8.3
		c3.9,0,7.4-2.5,8.4-6.4V71h9.1V111.3z"/>
	<path class="st1" d="M822.3,80.2c-1.3-0.9-3.4-1.4-5.4-1.4c-3.7,0-7.2,2.1-8.1,6.4v26.1h-9.1V71h9.1v4.2c1.5-3,5.1-5.1,9-5.1
		c2,0,3.8,0.4,4.4,0.7V80.2z"/>
	<path class="st1" d="M862.5,98.8c-1.4,8-7.3,13.4-17,13.4c-11.3,0-19.1-8.5-19.1-21c0-12.1,7.9-21.1,18.9-21.1
		c11.3,0,17.5,8.1,17.5,19.9v3.3h-27.5c0.3,7.1,4.4,11.3,10.2,11.3c4.4,0,7.6-1.9,8.6-5.8H862.5z M835.6,86.6h18.2
		c-0.1-4.9-2.9-8.9-8.4-8.9C840.4,77.7,836.7,80.8,835.6,86.6z"/>
	<path class="st1" d="M891.8,111.3V55.6h35.6v8.4h-26.1v16.5h24.4v8.3h-24.4v22.6H891.8z"/>
	<path class="st1" d="M951.1,112.2c-11.3,0-19.2-8.7-19.2-21.1c0-12.3,7.8-21.1,19.2-21.1c11.3,0,19.2,8.7,19.2,21.1
		C970.3,103.5,962.5,112.2,951.1,112.2z M951.1,77.9c-6.5,0-10.1,5.6-10.1,13.3s3.5,13.3,10.1,13.3s10.1-5.6,10.1-13.3
		S957.7,77.9,951.1,77.9z"/>
	<path class="st1" d="M1001.2,111.3V109c-1.4,1.4-5.4,3-10,3c-8.3,0-15.1-4.9-15.1-13.2c0-7.6,6.8-13,15.7-13c3.6,0,7.7,1.3,9.3,2.5
		v-3.3c0-4.1-2.5-7.3-7.7-7.3c-3.6,0-5.9,1.5-6.9,4.4h-8.7c1.2-6.9,7.5-12.1,15.8-12.1c10.2,0,16.2,5.6,16.2,14.8v26.4H1001.2z
		 M1001.2,97.2c-1-2.5-4.6-4.1-8.3-4.1c-4.1,0-8.4,1.7-8.4,5.7c0,4.1,4.3,5.8,8.4,5.8c3.6,0,7.3-1.5,8.3-4.1V97.2z"/>
	<path class="st1" d="M1062.2,70.1c8.3,0,13.1,5.8,13.1,15v26.2h-9.1V86.5c0-5-2.2-8.3-6.6-8.3c-3.3,0-6.4,2-7.2,6v27.1h-9.1V86.5
		c0-5-2.2-8.3-6.6-8.3c-3.3,0-6.4,2-7.2,6v27.1h-9.1V71h9.1v3.4c1.9-2.5,5.5-4.3,10.1-4.3c4.5,0,8.5,2.3,10.6,5.4
		C1053.1,72.2,1056.8,70.1,1062.2,70.1z"/>
</g>
</svg>
