<svg xmlns="http://www.w3.org/2000/svg" width="565" height="175" viewBox="0 0 565 175"><defs><style>.cls-1{fill:none;}.cls-2{fill:#6c91ad;}.cls-3{fill:#1e306f;}</style></defs><g id="Layer_2" data-name="Layer 2"><g id="Layer_1-2" data-name="Layer 1"><rect class="cls-1" width="565" height="175"/><path class="cls-2" d="M54.24,46.62a3.36,3.36,0,0,1-.63-.06A4,4,0,0,1,50.29,42a89.3,89.3,0,0,0,.86-20.26,4,4,0,1,1,8-.57,98.16,98.16,0,0,1-.94,22.1,4,4,0,0,1-3.95,3.37"/><path class="cls-3" d="M71.87,111.2a4,4,0,0,1-.08-8,28.39,28.39,0,0,0,10-1.93,7.06,7.06,0,0,0,3.77-3.64c1-2.15,2.91-5.86,5.13-10.16,3-5.81,6.82-13.2,9.25-18.51-12.33,2.77-26.81-1.08-39.79-4.54-7.6-2-14.78-3.93-20.63-4.31a14.09,14.09,0,0,0-13.11,7.33L11.14,95.15a41.16,41.16,0,0,1,15.61-1.06,4,4,0,1,1-.84,8c-7.1-.74-12.74.18-17.76,2.91A5.51,5.51,0,0,1,.29,98.36a5.37,5.37,0,0,1,.29-.65L19.45,63.58A22.11,22.11,0,0,1,40.08,52.14c6.63.43,14.18,2.44,22.16,4.56,13.66,3.64,29.14,7.75,39.94,3.21a5.5,5.5,0,0,1,7.36,6.82c-1.72,5.09-7.25,15.81-11.7,24.42-2.17,4.22-4.06,7.86-5,9.85a15,15,0,0,1-8.07,7.71A36.22,36.22,0,0,1,72,111.2h-.09"/><path class="cls-2" d="M53.55,143.47a3.93,3.93,0,0,1-2.17-.65l-14.94-9.66a4,4,0,0,1,4.35-6.72l11.58,7.5,7.49-11.58a4,4,0,1,1,6.72,4.34l-9.67,14.94a4,4,0,0,1-3.36,1.83"/><path class="cls-2" d="M52.54,141.78a4,4,0,0,1-3.9-3.14C42.93,112.75,46.79,88.37,47,87.35a4,4,0,1,1,7.9,1.29c0,.23-3.78,23.94,1.59,48.28a4,4,0,0,1-3,4.77,4.28,4.28,0,0,1-.87.09"/><path class="cls-3" d="M198.1,54.28l24.57,63.92h-11l-6.56-17.69H180.61l-6.56,17.69H163.11l24.58-63.92ZM184,91.14h17.49L192.79,67.5Z"/><path class="cls-3" d="M235,64.38A6.35,6.35,0,1,1,241.46,58,6.46,6.46,0,0,1,235,64.38m5.21,53.82H229.8V72h10.41Z"/><path class="cls-3" d="M277.43,82.49a11.48,11.48,0,0,0-6.14-1.56A9,9,0,0,0,262,88.32V118.2H251.61V72H262v4.79a11.6,11.6,0,0,1,10.31-5.83,12.91,12.91,0,0,1,5.1.83Z"/><path class="cls-3" d="M293,100.51c2.09,6.55,7.5,9.57,14.47,9.57,7.5,0,12.39-3.54,12.39-9.47,0-4.48-2.6-7.08-9.26-8.64l-10.83-2.61c-8.85-2.08-15.93-6.87-15.93-17.17,0-10.83,8.85-18.95,21.76-18.95,13.85,0,22,7.08,24.26,17.7H319c-1.67-4.79-5.72-8.54-13.33-8.54-6.87,0-11.55,3.54-11.55,8.85,0,4.27,2.71,7,8.43,8.33l11.14,2.6c10,2.29,16.55,8.12,16.55,17.7,0,12-9.57,19.36-22.8,19.36-13.53,0-23.21-6.87-25.5-18.73Z"/><path class="cls-3" d="M358.12,70.94c11,0,18,6.24,19.36,15.51H367.07c-.83-4.16-4.27-6.45-8.85-6.45-7,0-11.24,6.35-11.24,15.09s4.27,15.1,11.24,15.1c4.58,0,8-2.29,8.85-6.46h10.41c-1.35,9.27-8.33,15.52-19.36,15.52-12.5,0-21.55-9.79-21.55-24.16s9.05-24.15,21.55-24.15"/><path class="cls-3" d="M412.09,118.2v-2.6c-1.56,1.56-6.25,3.44-11.45,3.44-9.48,0-17.29-5.62-17.29-15.1,0-8.74,7.81-14.89,18-14.89,4.17,0,8.85,1.46,10.73,2.81V88.12c0-4.69-2.92-8.33-8.85-8.33-4.17,0-6.77,1.77-7.91,5h-10c1.36-7.92,8.64-13.85,18.12-13.85,11.66,0,18.53,6.45,18.53,17V118.2Zm0-16.13c-1.15-2.92-5.31-4.69-9.48-4.69-4.68,0-9.57,2-9.57,6.56s4.89,6.66,9.57,6.66c4.17,0,8.33-1.77,9.48-4.68Z"/><path class="cls-3" d="M443.36,135.9H433V72h10.41v4c2.09-2.61,6.67-5,11.77-5,13.53,0,21.44,11.24,21.44,24.15s-7.91,24.15-21.44,24.15c-5.1,0-9.68-2.39-11.77-5Zm0-32.06a11.23,11.23,0,0,0,10,6.14c8,0,12.8-6.35,12.8-14.89s-4.79-14.89-12.8-14.89a11.22,11.22,0,0,0-10,6.15Z"/><path class="cls-3" d="M523.87,103.84c-1.56,9.16-8.33,15.4-19.47,15.4-12.91,0-21.86-9.78-21.86-24,0-13.85,9.06-24.26,21.66-24.26,13,0,20.09,9.26,20.09,22.8v3.75H492.74c.31,8.12,5,13,11.66,13,5,0,8.75-2.19,9.89-6.66Zm-30.82-14H514c-.1-5.63-3.33-10.21-9.68-10.21-5.73,0-10,3.54-11.25,10.21"/><path class="cls-3" d="M528.69,54.38h14.78v3.13H538V71.68h-3.67V57.51h-5.59Zm25.41,17.3-4.43-11.44V71.68h-3.41V54.38h4.36l4.7,12.26L560,54.38h4.36v17.3H561V60.24l-4.43,11.44Z"/></g></g></svg>